<svg width="42" height="51" fill="none" xmlns="http://www.w3.org/2000/svg"><path fill-rule="evenodd" clip-rule="evenodd" d="M6.01894 6.96796v-.00001c-.03991-.02212-.08026-.0445-.12449-.07398h.00833c.00274-.00456.00607-.00942.00961-.01457l.00001-.00002c.00724-.01055.01534-.02235.02094-.03541.01111-.00417.02291-.00764.03472-.01111l.00002-.00001c.0118-.00347.0236-.00694.0347-.01111.0653.04664.08799.09579.11184.14744.01167.02526.02361.05111.04094.07756 2.46389 1.54723 3.84167.71667 4.80554-1.44166.1333-.31111.2611-.64722.3861-1.00556 1.1385-3.34377 3.8169-3.38447 6.4073-3.42384.829-.01259 1.649-.02505 2.4066-.1456 1.8278-.286113 1.2445 1.41666.4528 2.23611-.2613.27397-.5685.50462-.8865.7435-.801.60157-1.6714 1.25531-2.0552 2.78428.7388 0 1.4459.00462 2.1315.0091 1.5055.00984 2.9064.019 4.3074-.02299 2.6195-.07778 3.0639.875 1.6195 2.99444-.3164.46718-.5723.97778-.8277 1.48728v.0001c-.3186.6356-.6363 1.2696-1.0696 1.8154-1.5139 1.8944-1.4805 3.1889 1.0028 4.0722.625.2222 1.4306.7778 1.5889 1.3417.7538 2.6712 2.5585 4.6784 4.3579 6.6798 1.9937 2.2174 3.9809 4.4277 4.5254 7.5257.0254.1426.0427.2746.0585.3955.0867.6613.1299.9906 1.2054.899 1.8334-.1722 4.0028-.1945 4.5139 2.1444.4917 2.2306-1.1 3.65-2.8028 4.8278-.2319.1585-.4087.3909-.6061.6506h-.0001v.0001c-.0863.1135-.1766.2321-.2771.3521.1571.6853.751.7035 1.307.7205.555.017 1.0722.0329 1.0791.71.0111 1.1278-1.1972 1.6528-2.0333 1.9112-4.2639 1.325-8.7556 1.775-13.1278 1.6861-2.3339-.0515-4.3768.6944-6.4087 1.4363-1.4746.5384-2.9435 1.0748-4.5135 1.3026-.2299.0343-.4557.0857-.6858.1381-.8321.1894-1.7219.3919-3.07533-.152 1.60493-.5829 2.66513-1.7646 3.73313-2.9549 1.5939-1.7764 3.2051-3.5721 6.6696-3.4257-.6064-.252-1.0936-.4575-1.5027-.6302l-.003-.0012-.0002-.0001h-.0001c-.7976-.3366-1.2987-.548-1.8106-.7352-2.3306-.8416-2.6417-2.4777-.9028-4.3722.9806-1.0639 1.6583-2.2055-.5639-2.6666-1.2216-.2518-.9301-.7745-.6069-1.354.2332-.4181.4829-.8658.193-1.2627-.3722-.5111.85-.6556 1.5556-.5667 2.0889.2695 5.0416.6306 4.2305-2.4222-.0658-.2467-.1283-.5247-.1949-.821v-.0004c-.4611-2.0524-1.1202-4.9867-4.494-4.5425-3.6555.4806-4.8027-.425-2.5166-3.7417-.465-.208-1.1084.0323-1.7251.2627-1.17.4371-2.24416.8384-1.8221-1.9265.025-.175-.31949-.5945-.38893-.575-.26576.0842-.53733.3475-.80728.6093l-.00001.0001c-.58501.5673-1.16242 1.1273-1.6566-.1594-.35261-.9174.24412-1.1599.94456-1.4446.71216-.2895 1.53152-.6225 1.56933-1.7527-.05514-.1789-.46637-.1829-.90905-.1872-.73935-.0072-1.56642-.0152-.96873-.8405 1.98956-2.7451.46741-3.8988-1.23564-5.18949l-.00005-.00004-.00017-.00012c-.1753-.13287-.35252-.26718-.52803-.40484-.2302-.17925-.14637-.44951-.05674-.73851.04232-.13645.08594-.27707.09841-.41427 0-.00416-.00139-.00971-.00278-.01527-.00139-.00556-.00278-.01112-.00278-.01528.00834-.13056-.00555-.26389-.08611-.38334-.04599-.03161-.08826-.05505-.13105-.07878h-.00001ZM1.47778 27.1856C.91667 27.094.277781 26.5051.338892 25.6579c.122222-1.5556 4.863888-4.725 6.969448-4.6 1.93913.1067 2.56447 1.4245 3.15226 2.6633.2382.502.4702.991.7811 1.3811-.0917 1.8333-1.2 2.8694-2.3917 2.875-2.34.0291-4.69766-.3555-7.0273-.7355l-.34492-.0562ZM8.19167 1.8773c-2.625.7-4.13889 2.09444-3.95278 4.91389-1.75837.17295-1.24831.88809-.77821 1.5472.07351.10307.14604.20476.20877.3028.13571-.30876.37193-.59886.61563-.89816.15533-.19077.31371-.38528.45103-.59073.15415-.03988.30872-.08061.46338-.12135l.0002-.00005c.24381-.06424.48786-.12853.73087-.18971.23678-.52202.64386-.9634 1.05676-1.41109.84167-.91258 1.70751-1.85137 1.20435-3.5528ZM3.575 9.42452c.42223-.14722.30834-.44166.09167-.78333-.10833.23889-.17222.48889-.09167.78333Z" fill="#0E8784"/></svg>